<svg xmlns="http://www.w3.org/2000/svg" width="32" height="32" viewBox="0 0 32 32">
  <rect width="32" height="32" rx="6" fill="#000"/>
  <g transform="translate(6, 4)">
    <!-- Isometric 3D cube - three segments forming central T/arrow -->
    <!-- Top segment (inverted U/arch) -->
    <path d="M4 8 L16 8 L16 4 L20 4 L20 8 L24 8 L24 12 L20 12 L20 16 L16 16 L16 12 L12 12 L12 16 L8 16 L8 12 L4 12 Z" 
          fill="none" 
          stroke="#0D9488" 
          stroke-width="2.5" 
          stroke-linecap="round" 
          stroke-linejoin="round"/>
    <!-- Left segment (L shape) -->
    <path d="M4 16 L4 24 L0 24 L0 28 L4 28 L4 32 L8 32 L8 28 L12 28 L12 16" 
          fill="none" 
          stroke="#0D9488" 
          stroke-width="2.5" 
          stroke-linecap="round" 
          stroke-linejoin="round"/>
    <!-- Right segment (mirrored L shape) -->
    <path d="M24 16 L24 24 L28 24 L28 28 L24 28 L24 32 L20 32 L20 28 L16 28 L16 16" 
          fill="none" 
          stroke="#0D9488" 
          stroke-width="2.5" 
          stroke-linecap="round" 
          stroke-linejoin="round"/>
    <!-- Inner glow effect -->
    <path d="M4 8 L16 8 L16 4 L20 4 L20 8 L24 8 L24 12 L20 12 L20 16 L16 16 L16 12 L12 12 L12 16 L8 16 L8 12 L4 12 Z" 
          fill="none" 
          stroke="#14B8A6" 
          stroke-width="1.2" 
          stroke-linecap="round" 
          stroke-linejoin="round" 
          opacity="0.6"/>
    <path d="M4 16 L4 24 L0 24 L0 28 L4 28 L4 32 L8 32 L8 28 L12 28 L12 16" 
          fill="none" 
          stroke="#14B8A6" 
          stroke-width="1.2" 
          stroke-linecap="round" 
          stroke-linejoin="round" 
          opacity="0.6"/>
    <path d="M24 16 L24 24 L28 24 L28 28 L24 28 L24 32 L20 32 L20 28 L16 28 L16 16" 
          fill="none" 
          stroke="#14B8A6" 
          stroke-width="1.2" 
          stroke-linecap="round" 
          stroke-linejoin="round" 
          opacity="0.6"/>
  </g>
</svg>
